<?xml version="1.0" encoding="UTF-8"?>
<svg width="866px" height="577px" viewBox="0 0 866 577" version="1.1" xmlns="http://www.w3.org/2000/svg" xmlns:xlink="http://www.w3.org/1999/xlink">
    <!-- Generator: Sketch 47.1 (45422) - http://www.bohemiancoding.com/sketch -->
    <title>Hero</title>
    <desc>Created with Sketch.</desc>
    <defs></defs>
    <g id="Page-1" stroke="none" stroke-width="1" fill="none" fill-rule="evenodd" stroke-linecap="round" stroke-linejoin="round">
        <g id="Hero" stroke="#000000" stroke-width="2">
            <g id="mail" opacity="0.198312953" transform="translate(16.000000, 467.000000)">
                <path d="M3.4,0 L30.6,0 C32.47,0 34,1.51875 34,3.375 L34,23.625 C34,25.48125 32.47,27 30.6,27 L3.4,27 C1.53,27 0,25.48125 0,23.625 L0,3.375 C0,1.51875 1.53,0 3.4,0 Z" id="Shape"></path>
                <polyline id="Shape" points="34 3 17 15 0 3"></polyline>
            </g>
            <g id="shopping-cart" opacity="0.202219203" transform="translate(763.066301, 34.066301) rotate(19.000000) translate(-763.066301, -34.066301) translate(748.066301, 19.066301)">
                <circle id="Oval" cx="9.54545455" cy="27.2727273" r="2.72727273"></circle>
                <circle id="Oval" cx="25.9090909" cy="27.2727273" r="2.72727273"></circle>
                <path d="M6.36818182,6.81818182 L30,6.81818182 L27.7090909,18.2590909 C27.4517223,19.5548612 26.3026583,20.4798578 24.9818182,20.4545455 L10.5681818,20.4545455 C9.19020196,20.4662329 8.02000335,19.4481601 7.84090909,18.0818182 L5.76818182,2.37272727 C5.59039396,1.01672164 4.43579123,0.00207076016 3.06818182,0 L0,0" id="Shape"></path>
            </g>
            <g id="headphones" opacity="0.198312953" transform="translate(69.526857, 408.526857) rotate(22.000000) translate(-69.526857, -408.526857) translate(54.526857, 393.526857)">
                <path d="M0,25 L0,15 C1.23445261e-07,6.71572884 6.71572884,2.23517416e-07 15,2.23517416e-07 C23.2842712,2.23517418e-07 29.9999999,6.71572884 30,15 L30,25" id="Shape"></path>
                <path d="M30,26.6666667 C30,28.5076158 28.5076158,30 26.6666667,30 L25,30 C23.1590508,30 21.6666667,28.5076158 21.6666667,26.6666667 L21.6666667,21.6666667 C21.6666667,19.8257175 23.1590508,18.3333333 25,18.3333333 L30,18.3333333 L30,26.6666667 Z M0,26.6666667 C0,28.5076158 1.49238417,30 3.33333333,30 L5,30 C6.84094917,30 8.33333333,28.5076158 8.33333333,26.6666667 L8.33333333,21.6666667 C8.33333333,19.8257175 6.84094917,18.3333333 5,18.3333333 L0,18.3333333 L0,26.6666667 Z" id="Shape"></path>
            </g>
            <g id="briefcase" opacity="0.198312953" transform="translate(130.493970, 466.838446) rotate(-27.000000) translate(-130.493970, -466.838446) translate(115.493970, 453.338446)">
                <rect id="Rectangle-path" x="0" y="6" width="30" height="21" rx="2"></rect>
                <path d="M21,27 L21,3 C21,1.34314575 19.6568542,0 18,0 L12,0 C10.3431458,0 9,1.34314575 9,3 L9,27" id="Shape"></path>
            </g>
            <g id="camera" opacity="0.202219203" transform="translate(823.178388, 118.487614) rotate(19.000000) translate(-823.178388, -118.487614) translate(808.178388, 106.214887)">
                <path d="M30,21.8181818 C30,23.324413 28.7789584,24.5454545 27.2727273,24.5454545 L2.72727273,24.5454545 C1.22104159,24.5454545 3.02788098e-16,23.324413 0,21.8181818 L0,6.81818182 C-1.51394049e-16,5.31195068 1.22104159,4.09090909 2.72727273,4.09090909 L8.18181818,4.09090909 L10.9090909,0 L19.0909091,0 L21.8181818,4.09090909 L27.2727273,4.09090909 C28.7789584,4.09090909 30,5.31195068 30,6.81818182 L30,21.8181818 Z" id="Shape"></path>
                <circle id="Oval" cx="15" cy="13.6363636" r="5.45454545"></circle>
            </g>
            <g id="clock" opacity="0.202219203" transform="translate(800.901103, 172.901103) rotate(-18.000000) translate(-800.901103, -172.901103) translate(785.901103, 157.901103)">
                <circle id="Oval" cx="15" cy="15" r="15"></circle>
                <polyline id="Shape" points="15 6 15 15 19.5 19.5"></polyline>
            </g>
            <g id="credit-card" opacity="0.198312953" transform="translate(14.444927, 371.947550) rotate(-30.000000) translate(-14.444927, -371.947550) translate(-0.555073, 361.038459)">
                <rect id="Rectangle-path" x="0" y="0" width="30" height="21.8181818" rx="2"></rect>
                <path d="M0,8.18181818 L30,8.18181818" id="Shape"></path>
            </g>
            <g id="lock" opacity="0.198312953" transform="translate(111.482126, 530.326807) rotate(24.000000) translate(-111.482126, -530.326807) translate(96.482126, 513.660141)">
                <rect id="Rectangle-path" x="0" y="15" width="30" height="18.3333333" rx="2"></rect>
                <path d="M6.66666667,15 L6.66666667,8.33333333 C6.66666667,3.73096042 10.3976271,1.6283271e-15 15,8.8817842e-16 C19.6023729,-5.92118946e-16 23.3333333,3.73096042 23.3333333,8.33333333 L23.3333333,15" id="Shape"></path>
            </g>
            <g id="monitor" opacity="0.202219203" transform="translate(844.115381, 45.840862) rotate(-30.000000) translate(-844.115381, -45.840862) translate(829.115381, 31.590862)">
                <rect id="Rectangle-path" x="0" y="0" width="30" height="21" rx="2"></rect>
                <path d="M9,27 L21,27" id="Shape"></path>
                <path d="M15,21 L15,27" id="Shape"></path>
            </g>
            <g id="music" opacity="0.198312953" transform="translate(35.000000, 560.000000) rotate(-18.000000) translate(-35.000000, -560.000000) translate(20.000000, 545.000000)">
                <path d="M10,23.3333333 L3.33333333,23.3333333 C1.49238417,23.3333333 0,24.8257175 0,26.6666667 C0,28.5076158 1.49238417,30 3.33333333,30 L6.66666667,30 C8.50761583,30 10,28.5076158 10,26.6666667 L10,23.3333333 Z M30,20 L23.3333333,20 C21.4923842,20 20,21.4923842 20,23.3333333 C20,25.1742825 21.4923842,26.6666667 23.3333333,26.6666667 L26.6666667,26.6666667 C28.5076158,26.6666667 30,25.1742825 30,23.3333333 L30,20 Z" id="Shape"></path>
                <polyline id="Shape" points="10 23.3333333 10 3.33333333 30 0 30 20"></polyline>
            </g>
            <g id="printer" opacity="0.202219203" transform="translate(861.000000, 192.000000) rotate(-25.000000) translate(-861.000000, -192.000000) translate(846.000000, 177.000000)">
                <polyline id="Shape" points="6 10.5 6 0 24 0 24 10.5"></polyline>
                <path d="M6,24 L3,24 C1.34314575,24 0,22.6568542 0,21 L0,13.5 C-3.33066907e-16,11.8431458 1.34314575,10.5 3,10.5 L27,10.5 C28.6568542,10.5 30,11.8431458 30,13.5 L30,21 C30,22.6568542 28.6568542,24 27,24 L24,24" id="Shape"></path>
                <rect id="Rectangle-path" x="6" y="18" width="18" height="12"></rect>
            </g>
            <g id="tv" opacity="0.202219203" transform="translate(744.730147, 99.730147) rotate(-17.000000) translate(-744.730147, -99.730147) translate(729.730147, 84.730147)">
                <rect id="Rectangle-path" x="0" y="7.5" width="30" height="22.5" rx="2"></rect>
                <polyline id="Shape" points="22.5 0 15 7.5 7.5 0"></polyline>
            </g>
            <g id="video" opacity="0.198312953" transform="translate(195.537279, 530.647604) rotate(-23.000000) translate(-195.537279, -530.647604) translate(180.537279, 521.102150)">
                <polygon id="Shape" points="30 2.72727273 20.4545455 9.54545455 30 16.3636364"></polygon>
                <rect id="Rectangle-path" x="0" y="0" width="20.4545455" height="19.0909091" rx="2"></rect>
            </g>
            <g id="watch" opacity="0.202219203" transform="translate(681.000000, 25.571429) rotate(-29.000000) translate(-681.000000, -25.571429) translate(666.000000, 2.000000)">
                <circle id="Oval" cx="15" cy="23.5714286" r="15"></circle>
                <polyline id="Shape" points="15 17.1428571 15 23.5714286 18.2142857 26.7857143"></polyline>
                <path d="M24.6642857,35.0357143 L23.9142857,43.2428571 C23.7141301,45.4579875 21.852708,47.1518816 19.6285714,47.1428571 L10.35,47.1428571 C8.12586345,47.1518816 6.26444134,45.4579875 6.06428571,43.2428571 L5.31428571,35.0357143 M5.33571429,12.1071429 L6.08571429,3.9 C6.2851463,1.69307048 8.13407882,0.00208696755 10.35,9.78634762e-16 L19.6714286,9.78634762e-16 C21.8955651,-0.00902448789 23.7569872,1.68486963 23.9571429,3.9 L24.7071429,12.1071429" id="Shape"></path>
            </g>
        </g>
    </g>
</svg>